
<svg xmlns="http://www.w3.org/2000/svg" width="85" height="32" viewBox="0 0 85 33" fill="none">
    <path d="M30.1183 32C26.2911 32 23.459 30.7864 22.0211 28.4951C18.5753 22.9837 24.5112 13.2731 35.5369 6.38825C40.6793 3.17912 46.1286 1.10907 50.8809 0.565815C55.9071 -0.0102949 59.6248 1.18793 61.3433 3.93924C64.7891 9.44843 58.8532 19.1591 47.8274 26.0439C42.685 29.2552 37.2357 31.3231 32.4835 31.8663C31.6983 31.9567 30.9086 32.0013 30.1183 32ZM53.2176 2.54387C52.5187 2.54495 51.8204 2.58664 51.1264 2.66873C46.6832 3.17693 41.5474 5.13527 36.6592 8.1823C26.9794 14.2282 21.0961 23.01 23.8185 27.3604C25.0614 29.3472 28.1302 30.2191 32.238 29.7481C36.6811 29.2377 41.817 27.2794 46.7051 24.2323C56.385 18.1887 62.2683 9.40681 59.5458 5.05641C58.5244 3.42227 56.2688 2.54387 53.2176 2.54387Z" fill="#aab8c5"/>
	
    <path d="M57.9873 15.1899L62.3274 10.9096L59.4493 10.9468L55.0259 15.3476V6.99731H52.8887V21.4526H55.0259V18.1471L56.5033 16.686L59.6992 21.4526H62.3406L57.9873 15.1899Z" fill="#fff"/>
   
    <path d="M30.2233 17.9083C30.0315 18.406 29.6967 18.8358 29.261 19.1438C28.7947 19.4687 28.2356 19.634 27.6674 19.6148C27.0791 19.634 26.4977 19.4838 25.9924 19.182C25.4872 18.8803 25.0794 18.4396 24.8178 17.9127C24.5568 17.377 24.4211 16.789 24.4211 16.1931C24.4211 15.5973 24.5568 15.0093 24.8178 14.4736C25.082 13.9493 25.4905 13.5114 25.9954 13.2114C26.5002 12.9114 27.0803 12.7618 27.6674 12.7803C28.2356 12.7611 28.7947 12.9263 29.261 13.2513C29.696 13.559 30.0307 13.9879 30.2233 14.4845L30.3044 14.7036H32.5687L32.4416 14.2808C32.1408 13.2676 31.5126 12.3825 30.6551 11.7639C29.7274 11.102 28.6097 10.7591 27.4701 10.7869C26.5355 10.7572 25.6117 10.9945 24.8073 11.471C24.0028 11.9475 23.351 12.6433 22.9283 13.4769C22.5088 14.3218 22.2905 15.2522 22.2905 16.1953C22.2905 17.1385 22.5088 18.0689 22.9283 18.9138C23.3384 19.7231 23.9622 20.4049 24.7323 20.8853C25.557 21.3836 26.5067 21.6366 27.4701 21.6147C28.6091 21.6453 29.727 21.3047 30.6551 20.6443C31.5129 20.0269 32.1412 19.1424 32.4416 18.1296L32.5687 17.7068H30.3044L30.2233 17.9083Z" fill="#fff"/>
	
    <path d="M35.9888 6.99731H33.8516V21.4526H35.9888V6.99731Z" fill="#fff"/>
    <path d="M40.092 7.35181H37.8364V9.94102H40.092V7.35181Z" fill="#fff"/>
    <path d="M40.0327 10.9399H37.8955V21.4545H40.0327V10.9399Z" fill="#fff"/>
	
	  
	 
    <path d="M49.4778 17.9081C49.2868 18.4056 48.9528 18.8355 48.5177 19.1435C48.051 19.4676 47.4922 19.6328 46.9241 19.6145C46.3358 19.6338 45.7544 19.4836 45.2491 19.1818C44.7439 18.88 44.3361 18.4394 44.0745 17.9125C43.8121 17.3772 43.6756 16.789 43.6756 16.1929C43.6756 15.5968 43.8121 15.0086 44.0745 14.4733C44.3374 13.948 44.7457 13.5092 45.2508 13.2091C45.756 12.9089 46.3367 12.76 46.9241 12.7801C47.4923 12.7608 48.0514 12.9261 48.5177 13.251C48.9527 13.5582 49.2868 13.9874 49.4778 14.4843L49.5611 14.7033H51.8188L51.6895 14.2806C51.3887 13.2674 50.7605 12.3823 49.903 11.7636C48.9784 11.1023 47.8636 10.7594 46.7268 10.7867C45.7627 10.765 44.8124 11.0181 43.9868 11.5161C43.2193 11.9989 42.5967 12.6801 42.185 13.4876C41.764 14.332 41.5449 15.2626 41.5449 16.206C41.5449 17.1495 41.764 18.0801 42.185 18.9245C42.5949 19.7333 43.2179 20.4149 43.9868 20.896C44.8124 21.394 45.7627 21.647 46.7268 21.6254C47.8663 21.6529 48.9837 21.3083 49.9096 20.6441C50.7674 20.0267 51.3957 19.1422 51.6961 18.1293L51.8254 17.7066H49.5611L49.4778 17.9081Z" fill="#fff"/>
</svg>